<svg width="191" height="62" viewBox="0 0 191 62" fill="none" xmlns="http://www.w3.org/2000/svg">
<path d="M189.816 1.04525C189.288 4.84966 187.028 9.18083 184.034 12.078L182.097 13.951L184.181 16.0288C186.529 18.3407 188.143 21.0038 189.2 24.1936C189.582 25.3642 189.875 26.0958 189.904 25.8325C189.904 25.1301 188.906 22.4085 187.938 20.477L187.057 18.7504L183.952 14.5205C183.452 13.5205 183.87 13.1025 184.952 12.0205C186.952 10.0205 188.437 6.48848 188.965 5.31789C189.64 3.79613 190.345 0.664804 190.139 0.0502453C190.051 -0.154608 189.904 0.284364 189.816 1.04525Z" fill="black"/>
<path d="M0 2.50857C0 2.77196 0.322867 3.91328 0.76314 4.99608C1.40887 6.75196 1.95221 8.52063 4.95221 12.5206C4.95221 12.5206 5.45221 13.0206 6.45221 14.0206L2.7884 18.6627L1.70239 20.8575C1.08601 22.0867 0.528328 23.4621 0.440273 23.9596C0.352218 24.4571 0.528328 24.1937 0.851195 23.345C2.02526 20.2137 4.02116 17.2873 6.42799 15.1802L7.77816 14.0096L5.72355 11.9611C3.46348 9.73696 1.73174 6.98608 0.675085 3.91328C0.322867 2.85975 0 2.24519 0 2.50857Z" fill="black"/>
<path d="M40.5003 1.44198C37.1835 2.87595 33.9255 7.6461 32.5166 13.1186C31.8122 15.8402 31.7828 17.3327 32.3405 18.7082C32.8689 19.908 33.7494 20.4348 34.9822 20.2007C36.5965 19.908 37.976 18.0058 39.1207 14.5233C39.6197 13.0015 39.6197 13.0015 40.5883 13.1771C41.9385 13.4112 43.3767 12.8845 44.4921 11.7432C47.3979 8.72889 47.7794 3.05154 45.1672 1.50051C44.1398 0.885948 41.8504 0.856683 40.5003 1.44198ZM43.905 3.92948C44.404 4.89521 44.1398 7.41198 43.3767 8.90448C42.7016 10.2214 41.4982 11.2457 40.6177 11.2457C40.0306 11.2457 40.0013 11.1286 40.1187 8.75815C40.1774 7.00227 40.1187 6.27065 39.8839 6.27065C39.3849 6.27065 37.7999 7.11933 37.7999 7.38271C37.7999 7.49977 37.5945 8.96301 37.3596 10.6604C36.89 14.1721 36.1856 16.5718 35.4224 17.2742C33.5733 18.9423 34.0723 14.1721 36.2149 9.48977C37.5651 6.59257 38.5337 5.24639 40.1187 4.01727C41.7624 2.78815 43.2593 2.75889 43.905 3.92948Z" fill="black"/>
<path d="M56.5604 5.69845C51.6881 7.65919 47.5789 12.1367 46.6396 16.4386C45.8765 20.0089 48.1953 21.9111 51.3359 20.3308C51.9523 20.0089 53.1557 18.9846 54.0069 18.0482C55.1809 16.7605 55.5331 16.5264 55.357 17.0824C54.5352 19.8918 54.9168 20.682 57.0301 20.7112C58.0574 20.7405 58.2628 20.6527 58.3509 20.126C58.4096 19.687 58.2335 19.4529 57.7932 19.3358C57.2355 19.1895 57.1768 19.0139 57.2942 17.9018C57.3823 17.1995 58.2041 14.7412 59.1434 12.4293C60.7284 8.42007 60.7871 8.15669 60.2881 7.80551C59.9946 7.5714 59.5543 7.45434 59.3195 7.4836C58.8499 7.5714 58.7618 7.71772 56.942 11.5221C54.8874 15.8533 52.2164 18.8383 50.426 18.8383C47.9898 18.8383 49.3106 14.6535 52.9502 10.732C54.7406 8.80051 57.6171 6.9861 59.3195 6.69345C60.5816 6.4886 60.5816 6.45934 60.1707 5.63992C59.7598 4.90831 58.4389 4.93757 56.5604 5.69845Z" fill="black"/>
<path d="M67.2737 5.5814C66.5106 5.93258 66.3051 6.25449 66.1584 7.19096C66.0116 7.98111 65.6007 8.74199 64.7788 9.5614C61.6969 12.8098 59.8771 16.146 59.8771 18.5457C59.8771 19.9504 60.6696 20.8868 61.873 20.8868C63.6048 20.8576 64.955 19.4236 66.2171 16.1752C66.8628 14.5657 67.127 14.1852 67.7727 14.0682C68.1836 13.9804 68.7707 13.8048 69.0642 13.717C69.4751 13.5414 69.5631 13.6585 69.5631 14.3315C69.5631 14.7998 69.3577 15.824 69.1229 16.6142C68.2423 19.4821 68.8294 20.682 71.1188 20.7113C72.1754 20.7405 72.3515 20.6527 72.4396 20.126C72.4983 19.687 72.3515 19.4529 71.9406 19.3358C71.2068 19.1602 71.1775 18.6042 71.7645 16.6727C72.3515 14.712 72.3222 13.9804 71.559 13.2195L70.9427 12.6049L71.8232 11.844C75.0519 9.12243 75.1106 5.0839 71.9113 5.0839C71.3536 5.0839 70.385 5.34728 69.8273 5.63993C68.8881 6.13743 68.7707 6.16669 68.8 5.75699C68.8587 5.0839 68.3891 5.02537 67.2737 5.5814ZM71.8526 7.80552C72.0287 8.74199 71.6765 9.59066 70.6492 10.732C69.886 11.5221 69.387 11.8148 68.7119 11.8148C68.1836 11.8148 67.8021 11.6685 67.8021 11.4343C67.8608 10.2345 68.6239 7.95184 69.1229 7.5714C69.9447 6.95684 71.7352 7.10316 71.8526 7.80552Z" fill="black"/>
<path d="M87.8751 1.5545C84.6171 3.16406 82.3276 7.64156 83.7952 9.57303C84.1768 10.0705 84.0594 10.2461 82.5037 11.6801C80.3024 13.6994 78.9522 16.1869 78.9522 18.1769C78.9522 19.4645 79.0696 19.7571 79.8621 20.401C80.9775 21.3667 82.6505 21.396 84.4116 20.5473C85.5857 19.9913 89.2252 16.4795 89.2252 15.8942C89.2252 15.4552 88.3447 14.7529 87.9631 14.8992C87.7577 14.987 87.1119 15.6894 86.5249 16.4502C85.2041 18.1476 83.0321 19.4352 82.2689 18.9377C81.5938 18.4988 81.6819 17.1526 82.445 15.6601C83.4723 13.6408 85.7324 10.8607 86.202 11.0655C86.9652 11.3289 88.873 10.6558 89.0785 10.012C89.4894 8.75361 87.9925 8.22685 86.2314 9.017C85.7911 9.19259 85.7031 9.07553 85.7031 8.46097C85.7031 6.032 88.6382 2.72509 90.8102 2.72509C91.2212 2.72509 91.6321 2.87141 91.7201 3.01773C91.9549 3.42744 92.7474 2.84215 92.7474 2.25685C92.7474 0.998469 89.871 0.588763 87.8751 1.5545Z" fill="black"/>
<path d="M95.8328 5.49361C93.9249 6.34228 92.7509 8.44934 92.7509 11.0246C92.7509 12.722 93.3966 13.717 94.3945 13.5121C94.8055 13.4536 94.8935 13.0732 94.9229 11.3173C94.9522 8.68346 95.6273 7.5714 97.1829 7.5714C98.1222 7.5714 98.1809 7.62993 98.2689 8.68346C98.3863 10.0882 97.3003 13.9511 95.7447 17.6677C95.099 19.1895 94.6294 20.5357 94.7174 20.6527C94.7761 20.799 95.3044 20.8868 95.8621 20.8868C96.684 20.8868 96.9481 20.7405 97.2123 20.0674C99.9713 13.4536 103.875 7.42508 105.401 7.42508C106.223 7.42508 106.135 7.98111 104.491 12.839C103.699 15.2388 103.024 17.697 103.024 18.253C103.024 19.7455 104.081 20.682 105.724 20.7113C106.81 20.7405 106.986 20.6527 107.074 20.0674C107.133 19.6577 107.016 19.4236 106.722 19.4236C106.487 19.4236 106.076 19.2188 105.842 18.9554C105.284 18.4286 105.284 18.3993 107.162 12.4586C107.955 10.0004 108.601 7.54214 108.601 7.01537C108.601 5.78625 107.838 5.0839 106.517 5.0839C105.02 5.0839 103.611 6.22522 101.732 8.94684C100.588 10.6149 100.118 11.1124 100.294 10.4979C100.412 10.0004 100.5 8.97611 100.5 8.18596C100.5 6.95684 100.353 6.63493 99.5604 5.90331C98.5038 4.99611 97.3003 4.84978 95.8328 5.49361Z" fill="black"/>
<path d="M122.028 1.62883C118.212 3.44324 114.044 11.0228 113.956 16.2904C113.927 17.8415 114.044 18.4268 114.514 19.0706C116.481 21.6752 119.24 19.89 120.825 14.9735L121.47 12.9835L122.556 13.1591C124.229 13.4225 126.137 12.4568 127.223 10.7301C128.251 9.12059 128.984 6.89647 128.984 5.40397C128.955 3.85294 128.016 1.98 126.959 1.45324C125.756 0.809415 123.525 0.897209 122.028 1.62883ZM125.609 3.53103C126.255 4.17486 126.079 7.39397 125.345 8.85721C124.64 10.2034 123.466 11.2276 122.644 11.2276C121.969 11.2276 121.94 11.1691 121.94 8.74015C121.94 5.98927 121.705 5.69662 120.384 6.89647C119.768 7.48177 119.592 8.06706 119.21 11.0228C118.711 14.6809 117.655 17.6659 116.833 17.6659C115.747 17.6659 115.923 15.471 117.302 11.5203C118.33 8.62309 119.24 6.92574 120.737 5.28691C122.674 3.15059 124.552 2.44824 125.609 3.53103Z" fill="black"/>
<path d="M137.365 6.31291C135.428 7.24938 134.401 8.01027 132.669 9.73688C129.939 12.4585 128.765 14.6534 128.618 17.2872C128.501 19.0138 128.56 19.1601 129.382 20.0088C131.055 21.6769 133.755 20.8575 136.22 17.9017C137.013 16.9653 137.659 16.2044 137.659 16.2629C137.659 16.3214 137.453 16.9945 137.218 17.7847C136.69 19.5113 136.837 20.0966 137.835 20.5356C138.715 20.9453 140.3 21.0038 140.3 20.6234C140.3 20.477 140.388 20.1551 140.476 19.921C140.594 19.5991 140.418 19.4528 139.948 19.365C139.361 19.2772 139.273 19.1309 139.332 18.0773C139.361 17.4042 140.095 15.0338 141.005 12.7511C141.915 10.4685 142.648 8.44924 142.648 8.21512C142.648 7.77615 142.061 7.42497 141.328 7.42497C141.122 7.42497 140.124 9.03453 139.156 10.9953C137.248 14.9167 135.692 17.1409 134.166 18.1651C131.583 19.8917 130.291 17.9895 131.965 14.8875C133.96 11.1416 137.894 7.5713 140.887 6.81041C142.355 6.42997 142.648 6.0788 142.003 5.43497C141.357 4.79115 139.889 5.0838 137.365 6.31291Z" fill="black"/>
<path d="M149.223 5.63993C148.548 6.04964 148.255 6.48861 148.108 7.30802C147.932 8.09816 147.345 9.00537 145.995 10.4686C143.852 12.7805 142.061 16.0582 141.856 18.0189C141.651 19.7455 142.531 20.8868 144.028 20.8868C145.525 20.8868 147.051 19.2188 148.137 16.4093C148.9 14.3608 149.018 14.2145 150.133 13.9218C150.779 13.7463 151.425 13.717 151.542 13.8633C151.689 13.9804 151.513 15.1217 151.16 16.3801C150.397 19.131 150.544 19.8918 151.894 20.4771C153.039 20.9454 154.389 21.0332 154.389 20.6235C154.389 20.4771 154.477 20.1552 154.565 19.8918C154.683 19.5407 154.565 19.4236 154.125 19.4236C153.244 19.4236 153.127 18.8968 153.655 17.2288C154.272 15.1802 154.213 13.7755 153.509 13.1317C152.922 12.6049 152.922 12.6049 154.066 11.6099C155.358 10.5271 156.444 8.53714 156.444 7.30802C156.444 5.37655 153.831 4.44008 151.836 5.63993C150.926 6.19596 150.926 6.19596 150.779 5.63993C150.603 4.93758 150.368 4.93758 149.223 5.63993ZM153.743 7.80552C153.919 8.71272 153.538 9.70772 152.599 10.7905C151.894 11.5807 151.454 11.8148 150.661 11.8148C149.693 11.8148 149.634 11.7855 149.81 10.9954C150.427 8.53714 150.661 7.98111 151.248 7.5714C152.1 6.95684 153.626 7.10316 153.743 7.80552Z" fill="black"/>
<path d="M81.5092 29.1102C70.7959 29.4613 57.9986 30.3393 44.9666 31.6269C39.9181 32.0952 39.8887 32.1244 39.742 32.856C38.5679 38.6504 36.6601 42.1037 32.8444 45.3521C29.1754 48.4249 25.6239 49.8296 20.8396 50.0637C16.8771 50.2393 14.2942 49.7125 10.6546 47.9566C6.04642 45.7032 2.55358 41.694 0.704437 36.4556C0.322867 35.3728 0 34.729 0 35.0216C0 35.3143 0.352218 36.4263 0.76314 37.4799C1.46758 39.2357 3 41.4999 5.5 45.3521C6 46.3891 9.15461 49.4998 10.6546 51V51C12.9505 53.2961 15.9414 54.7959 18.9292 56.0671C20.7399 56.8376 22.9843 57.5 26 57.5C29.5 57.5 32.5 57.5 35 56.9999V56.9999C36.6632 56.6673 38.2924 56.183 39.8672 55.5531L40 55.4999C41.5 54.9999 44.673 53.4682 44.9666 52.9999C45.0546 52.8536 43.2044 50.7074 42.5 51C38.7137 52.5803 36.3372 52.9316 27.5024 51.6147L20.8396 50.6197L23.0703 50.2393C27.4437 49.5077 31.0246 47.6055 34.3707 44.2693C36.1317 42.4841 36.8655 41.4891 37.9515 39.2943C38.6853 37.7725 39.4485 35.7532 39.6539 34.7875C39.8594 33.8218 40.1529 32.8853 40.329 32.6805C40.7399 32.2415 54.271 30.9538 67.215 30.1052C87.7024 28.7882 107.544 28.876 128.266 30.3978C134.43 30.866 148.695 32.2415 149.282 32.4171C149.458 32.4756 149.84 33.4706 150.104 34.6412C151.718 41.1965 156.238 46.4641 162.49 49.0687C163.899 49.654 166.453 50.2393 169.065 50.5612C170.356 50.7075 157.794 52.6097 155.71 52.5805C149.106 52.4634 143.235 48.2785 141.034 42.1037C139.772 38.5041 139.655 38.709 144.85 35.5484C147.345 34.0266 149.341 32.7097 149.282 32.6805C149.223 32.6219 147.11 33.8218 144.586 35.3728L140.036 38.1822L133.931 37.5969C107.162 34.9631 88.2601 34.9046 60.2587 37.4506L52.0109 38.1822L46.4048 35.3728C43.3229 33.851 40.7106 32.5927 40.5932 32.6219C40.4464 32.6219 42.9706 33.9388 46.17 35.5484C52.6567 38.7968 52.0696 38.1529 51.3065 41.2257C50.5727 44.123 45.6406 48.6296 42.5 51L43.7333 52L44.9666 52.9999L47 51.6147C48.5263 50.7368 50.4846 48.0193 51.7761 46C52.5099 44.8879 53.6478 43.0878 54 43C54.3522 42.9415 54.2416 42.7182 56.5017 42.5427C84.415 40.4356 105.137 40.3478 130.027 42.25C142.091 43.1865 140.946 42.9816 141.797 44.5619C142.179 45.2935 143.441 46.8446 144.556 47.9859C146.141 49.5955 147.169 50.3563 149.106 51.2635C150.485 51.9366 152.158 52.5512 152.863 52.6682C153.978 52.8438 154.242 53.0487 155.446 54.746C157.119 57.0872 159.144 58.6968 162.167 60.1307C165.073 61.5062 167.831 60.6756 171.5 60.5C178.616 58.8319 184.181 56 187.498 49.8003C188.173 47.9274 189.787 44.5619 190.051 41.5C190.11 37.7541 190.051 37 190.051 37C190.051 37 189.963 34.4656 190.051 33.5291C190.198 31.9196 190.169 31.9488 189.787 33.9974C189.083 37.5969 186.881 41.6647 184.181 44.3571C178.281 50.2393 169.036 51.8196 161.522 48.2785C157.148 46.2007 154.301 43.4499 152.188 39.2357C151.454 37.8018 150.691 35.6947 150.397 34.4071L149.898 32.0952L143.558 31.4513C120.283 29.1102 101.732 28.4078 81.5092 29.1102Z" fill="black"/>
</svg>
