<svg width="70" height="70" viewBox="0 0 70 70" fill="none" xmlns="http://www.w3.org/2000/svg">
<g clip-path="url(#clip0_21_321)">
<path d="M21.875 56L12.3271 3.58269C11.8568 1.48199 10.0966 0 8.07179 0H0M21.875 56H61.25M21.875 56C25.4994 56 28.4375 59.1341 28.4375 63C28.4375 66.8659 25.4994 70 21.875 70C18.2506 70 15.3125 66.8659 15.3125 63C15.3125 59.1341 18.2506 56 21.875 56ZM61.25 56C64.8743 56 67.8125 59.1341 67.8125 63C67.8125 66.8659 64.8743 70 61.25 70C57.6257 70 54.6875 66.8659 54.6875 63C54.6875 59.1341 57.6257 56 61.25 56ZM20.9281 42H63.4375L70 9.33333H13.125" stroke="#F9F1D5" stroke-width="3"/>
</g>
<defs>
<clipPath id="clip0_21_321">
<rect width="70" height="70" fill="white"/>
</clipPath>
</defs>
</svg>
