<svg width="64" height="64" viewBox="0 0 64 64" fill="none" xmlns="http://www.w3.org/2000/svg">
<g clip-path="url(#clip0_38_363)">
<path d="M62.242 53.757L51.578 43.093C54.373 38.736 56 33.56 56 28C56 12.536 43.464 0 28 0C12.536 0 0 12.536 0 28C0 43.464 12.536 56 28 56C33.56 56 38.736 54.373 43.093 51.578L53.757 62.242C56.101 64.586 59.899 64.586 62.242 62.242C64.585 59.898 64.586 56.101 62.242 53.757ZM28 54C13.641 54 2 42.359 2 28C2 13.641 13.641 2 28 2C42.359 2 54 13.641 54 28C54 42.359 42.359 54 28 54ZM60.828 60.828C59.266 62.39 56.733 62.39 55.172 60.828L44.769 50.425C46.914 48.819 48.82 46.912 50.426 44.769L60.828 55.171C62.391 56.732 62.391 59.266 60.828 60.828Z" fill="#FFDDB8"/>
<path d="M28 4C14.745 4 4 14.745 4 28C4 41.255 14.745 52 28 52C41.255 52 52 41.255 52 28C52 14.745 41.255 4 28 4ZM28 50C15.85 50 6 40.15 6 28C6 15.85 15.85 6 28 6C40.15 6 50 15.85 50 28C50 40.15 40.15 50 28 50Z" fill="#FFDDB8"/>
<path d="M28 11C27.447 11 27 11.447 27 12C27 12.553 27.447 13 28 13C36.284 13 43 19.716 43 28C43 28.553 43.447 29 44 29C44.553 29 45 28.553 45 28C45 18.611 37.389 11 28 11Z" fill="#FFDDB8"/>
</g>
<defs>
<clipPath id="clip0_38_363">
<rect width="64" height="64" fill="white"/>
</clipPath>
</defs>
</svg>
