<svg width="57" height="69" viewBox="0 0 57 69" fill="none" xmlns="http://www.w3.org/2000/svg">
<path fill-rule="evenodd" clip-rule="evenodd" d="M29.9161 0.739966C29.0247 0.30673 27.9753 0.30673 27.0839 0.739966L1.7505 13.0512C0.677666 13.5726 0 14.6383 0 15.8041V34.271C0 42.4648 2.72504 49.3256 7.60931 54.942C12.4427 60.4996 19.2682 64.7039 27.3011 67.8977C28.0693 68.2033 28.9307 68.2033 29.6989 67.8977C37.7318 64.7039 44.5572 60.4996 49.3908 54.942C54.2751 49.3256 57 42.4648 57 34.271V15.8041C57 14.6383 56.3223 13.5726 55.2495 13.0512L29.9161 0.739966ZM6.33333 34.271V17.7063L28.5 6.93395L50.6667 17.7063V34.271C50.6667 41.0191 48.4658 46.4699 44.5537 50.9682C40.806 55.2777 35.3783 58.8329 28.5 61.7116C21.6216 58.8329 16.194 55.2777 12.4462 50.9682C8.53423 46.4699 6.33333 41.0191 6.33333 34.271ZM43.5645 27.0481C44.7067 25.7611 44.5594 23.8176 43.2351 22.7072C41.9112 21.5968 39.9114 21.74 38.7689 23.0271L24.5819 39.0096L18.0507 32.7838C16.8021 31.5936 14.7972 31.6124 13.5726 32.826C12.3479 34.0396 12.3674 35.9881 13.616 37.1783L22.5571 45.7017C23.1819 46.2973 24.0322 46.6149 24.9062 46.5795C25.7805 46.5441 26.6006 46.1588 27.1722 45.5149L43.5645 27.0481Z" fill="white"/>
</svg>
